<mxfile host="Electron" modified="2024-04-30T01:40:59.309Z" agent="Mozilla/5.0 (Windows NT 10.0; Win64; x64) AppleWebKit/537.36 (KHTML, like Gecko) draw.io/24.0.4 Chrome/120.0.6099.109 Electron/28.1.0 Safari/537.36" etag="UpvRLiFKIBMbJVuE8uc4" version="24.0.4" type="device">
  <diagram id="C5RBs43oDa-KdzZeNtuy" name="Page-1">
    <mxGraphModel dx="989" dy="610" grid="1" gridSize="10" guides="1" tooltips="1" connect="1" arrows="1" fold="1" page="1" pageScale="1" pageWidth="827" pageHeight="1169" math="0" shadow="0">
      <root>
        <mxCell id="WIyWlLk6GJQsqaUBKTNV-0" />
        <mxCell id="WIyWlLk6GJQsqaUBKTNV-1" parent="WIyWlLk6GJQsqaUBKTNV-0" />
        <mxCell id="u7wEtXLEIsoXLm5_NyUz-11" value="Да" style="edgeStyle=orthogonalEdgeStyle;rounded=0;orthogonalLoop=1;jettySize=auto;html=1;entryX=0.5;entryY=0;entryDx=0;entryDy=0;" edge="1" parent="WIyWlLk6GJQsqaUBKTNV-1" source="WIyWlLk6GJQsqaUBKTNV-6" target="u7wEtXLEIsoXLm5_NyUz-5">
          <mxGeometry relative="1" as="geometry" />
        </mxCell>
        <mxCell id="u7wEtXLEIsoXLm5_NyUz-14" value="Нет" style="edgeStyle=orthogonalEdgeStyle;rounded=0;orthogonalLoop=1;jettySize=auto;html=1;entryX=0.5;entryY=0;entryDx=0;entryDy=0;" edge="1" parent="WIyWlLk6GJQsqaUBKTNV-1" source="WIyWlLk6GJQsqaUBKTNV-6" target="u7wEtXLEIsoXLm5_NyUz-12">
          <mxGeometry relative="1" as="geometry" />
        </mxCell>
        <mxCell id="WIyWlLk6GJQsqaUBKTNV-6" value="i != j?" style="rhombus;whiteSpace=wrap;html=1;shadow=0;fontFamily=Helvetica;fontSize=12;align=center;strokeWidth=1;spacing=6;spacingTop=-4;" parent="WIyWlLk6GJQsqaUBKTNV-1" vertex="1">
          <mxGeometry x="160" y="260" width="100" height="50" as="geometry" />
        </mxCell>
        <mxCell id="u7wEtXLEIsoXLm5_NyUz-7" style="edgeStyle=orthogonalEdgeStyle;rounded=0;orthogonalLoop=1;jettySize=auto;html=1;entryX=0.5;entryY=0;entryDx=0;entryDy=0;" edge="1" parent="WIyWlLk6GJQsqaUBKTNV-1" source="u7wEtXLEIsoXLm5_NyUz-0" target="u7wEtXLEIsoXLm5_NyUz-1">
          <mxGeometry relative="1" as="geometry" />
        </mxCell>
        <mxCell id="u7wEtXLEIsoXLm5_NyUz-0" value="Начало" style="ellipse;whiteSpace=wrap;html=1;" vertex="1" parent="WIyWlLk6GJQsqaUBKTNV-1">
          <mxGeometry x="150" y="30" width="120" height="50" as="geometry" />
        </mxCell>
        <mxCell id="u7wEtXLEIsoXLm5_NyUz-8" style="edgeStyle=orthogonalEdgeStyle;rounded=0;orthogonalLoop=1;jettySize=auto;html=1;" edge="1" parent="WIyWlLk6GJQsqaUBKTNV-1" source="u7wEtXLEIsoXLm5_NyUz-1" target="u7wEtXLEIsoXLm5_NyUz-6">
          <mxGeometry relative="1" as="geometry" />
        </mxCell>
        <mxCell id="u7wEtXLEIsoXLm5_NyUz-1" value="result = 0&lt;div&gt;i = 0&lt;/div&gt;" style="rounded=1;whiteSpace=wrap;html=1;" vertex="1" parent="WIyWlLk6GJQsqaUBKTNV-1">
          <mxGeometry x="150" y="110" width="120" height="30" as="geometry" />
        </mxCell>
        <mxCell id="u7wEtXLEIsoXLm5_NyUz-10" style="edgeStyle=orthogonalEdgeStyle;rounded=0;orthogonalLoop=1;jettySize=auto;html=1;entryX=0.5;entryY=0;entryDx=0;entryDy=0;" edge="1" parent="WIyWlLk6GJQsqaUBKTNV-1" source="u7wEtXLEIsoXLm5_NyUz-2" target="WIyWlLk6GJQsqaUBKTNV-6">
          <mxGeometry relative="1" as="geometry" />
        </mxCell>
        <mxCell id="u7wEtXLEIsoXLm5_NyUz-2" value="j = 0" style="rounded=1;whiteSpace=wrap;html=1;" vertex="1" parent="WIyWlLk6GJQsqaUBKTNV-1">
          <mxGeometry x="150" y="210" width="120" height="30" as="geometry" />
        </mxCell>
        <mxCell id="u7wEtXLEIsoXLm5_NyUz-13" style="edgeStyle=orthogonalEdgeStyle;rounded=0;orthogonalLoop=1;jettySize=auto;html=1;entryX=0;entryY=0.5;entryDx=0;entryDy=0;" edge="1" parent="WIyWlLk6GJQsqaUBKTNV-1" source="u7wEtXLEIsoXLm5_NyUz-5" target="u7wEtXLEIsoXLm5_NyUz-12">
          <mxGeometry relative="1" as="geometry" />
        </mxCell>
        <mxCell id="u7wEtXLEIsoXLm5_NyUz-5" value="term *= target - xj / xi-xj" style="rounded=1;whiteSpace=wrap;html=1;" vertex="1" parent="WIyWlLk6GJQsqaUBKTNV-1">
          <mxGeometry x="150" y="340" width="120" height="30" as="geometry" />
        </mxCell>
        <mxCell id="u7wEtXLEIsoXLm5_NyUz-9" style="edgeStyle=orthogonalEdgeStyle;rounded=0;orthogonalLoop=1;jettySize=auto;html=1;" edge="1" parent="WIyWlLk6GJQsqaUBKTNV-1" source="u7wEtXLEIsoXLm5_NyUz-6" target="u7wEtXLEIsoXLm5_NyUz-2">
          <mxGeometry relative="1" as="geometry" />
        </mxCell>
        <mxCell id="u7wEtXLEIsoXLm5_NyUz-6" value="term = yi" style="rounded=1;whiteSpace=wrap;html=1;" vertex="1" parent="WIyWlLk6GJQsqaUBKTNV-1">
          <mxGeometry x="150" y="160" width="120" height="30" as="geometry" />
        </mxCell>
        <mxCell id="u7wEtXLEIsoXLm5_NyUz-16" value="Да" style="edgeStyle=orthogonalEdgeStyle;rounded=0;orthogonalLoop=1;jettySize=auto;html=1;entryX=0.5;entryY=0;entryDx=0;entryDy=0;" edge="1" parent="WIyWlLk6GJQsqaUBKTNV-1" source="u7wEtXLEIsoXLm5_NyUz-12" target="u7wEtXLEIsoXLm5_NyUz-15">
          <mxGeometry relative="1" as="geometry" />
        </mxCell>
        <mxCell id="u7wEtXLEIsoXLm5_NyUz-26" value="Нет" style="edgeStyle=orthogonalEdgeStyle;rounded=0;orthogonalLoop=1;jettySize=auto;html=1;entryX=0;entryY=0.5;entryDx=0;entryDy=0;" edge="1" parent="WIyWlLk6GJQsqaUBKTNV-1" source="u7wEtXLEIsoXLm5_NyUz-12" target="u7wEtXLEIsoXLm5_NyUz-24">
          <mxGeometry relative="1" as="geometry" />
        </mxCell>
        <mxCell id="u7wEtXLEIsoXLm5_NyUz-12" value="j &amp;lt; n" style="rhombus;whiteSpace=wrap;html=1;shadow=0;fontFamily=Helvetica;fontSize=12;align=center;strokeWidth=1;spacing=6;spacingTop=-4;" vertex="1" parent="WIyWlLk6GJQsqaUBKTNV-1">
          <mxGeometry x="314" y="330" width="100" height="50" as="geometry" />
        </mxCell>
        <mxCell id="u7wEtXLEIsoXLm5_NyUz-17" style="edgeStyle=orthogonalEdgeStyle;rounded=0;orthogonalLoop=1;jettySize=auto;html=1;entryX=0;entryY=0.5;entryDx=0;entryDy=0;" edge="1" parent="WIyWlLk6GJQsqaUBKTNV-1" source="u7wEtXLEIsoXLm5_NyUz-15" target="WIyWlLk6GJQsqaUBKTNV-6">
          <mxGeometry relative="1" as="geometry" />
        </mxCell>
        <mxCell id="u7wEtXLEIsoXLm5_NyUz-15" value="j++" style="rounded=1;whiteSpace=wrap;html=1;" vertex="1" parent="WIyWlLk6GJQsqaUBKTNV-1">
          <mxGeometry x="304" y="400" width="120" height="30" as="geometry" />
        </mxCell>
        <mxCell id="u7wEtXLEIsoXLm5_NyUz-22" value="Да" style="edgeStyle=orthogonalEdgeStyle;rounded=0;orthogonalLoop=1;jettySize=auto;html=1;entryX=0.5;entryY=1;entryDx=0;entryDy=0;" edge="1" parent="WIyWlLk6GJQsqaUBKTNV-1" source="u7wEtXLEIsoXLm5_NyUz-18" target="u7wEtXLEIsoXLm5_NyUz-21">
          <mxGeometry relative="1" as="geometry" />
        </mxCell>
        <mxCell id="u7wEtXLEIsoXLm5_NyUz-28" value="Нет" style="edgeStyle=orthogonalEdgeStyle;rounded=0;orthogonalLoop=1;jettySize=auto;html=1;entryX=0;entryY=0.5;entryDx=0;entryDy=0;" edge="1" parent="WIyWlLk6GJQsqaUBKTNV-1" source="u7wEtXLEIsoXLm5_NyUz-18" target="u7wEtXLEIsoXLm5_NyUz-27">
          <mxGeometry relative="1" as="geometry" />
        </mxCell>
        <mxCell id="u7wEtXLEIsoXLm5_NyUz-18" value="i &amp;lt; n" style="rhombus;whiteSpace=wrap;html=1;shadow=0;fontFamily=Helvetica;fontSize=12;align=center;strokeWidth=1;spacing=6;spacingTop=-4;" vertex="1" parent="WIyWlLk6GJQsqaUBKTNV-1">
          <mxGeometry x="450" y="270" width="100" height="50" as="geometry" />
        </mxCell>
        <mxCell id="u7wEtXLEIsoXLm5_NyUz-23" style="edgeStyle=orthogonalEdgeStyle;rounded=0;orthogonalLoop=1;jettySize=auto;html=1;entryX=1;entryY=0.5;entryDx=0;entryDy=0;" edge="1" parent="WIyWlLk6GJQsqaUBKTNV-1" source="u7wEtXLEIsoXLm5_NyUz-21" target="u7wEtXLEIsoXLm5_NyUz-2">
          <mxGeometry relative="1" as="geometry">
            <Array as="points">
              <mxPoint x="500" y="225" />
            </Array>
          </mxGeometry>
        </mxCell>
        <mxCell id="u7wEtXLEIsoXLm5_NyUz-21" value="i++" style="rounded=1;whiteSpace=wrap;html=1;" vertex="1" parent="WIyWlLk6GJQsqaUBKTNV-1">
          <mxGeometry x="440" y="210" width="120" height="30" as="geometry" />
        </mxCell>
        <mxCell id="u7wEtXLEIsoXLm5_NyUz-25" style="edgeStyle=orthogonalEdgeStyle;rounded=0;orthogonalLoop=1;jettySize=auto;html=1;" edge="1" parent="WIyWlLk6GJQsqaUBKTNV-1" source="u7wEtXLEIsoXLm5_NyUz-24" target="u7wEtXLEIsoXLm5_NyUz-18">
          <mxGeometry relative="1" as="geometry" />
        </mxCell>
        <mxCell id="u7wEtXLEIsoXLm5_NyUz-24" value="result += term" style="rounded=1;whiteSpace=wrap;html=1;" vertex="1" parent="WIyWlLk6GJQsqaUBKTNV-1">
          <mxGeometry x="440" y="340" width="120" height="30" as="geometry" />
        </mxCell>
        <mxCell id="u7wEtXLEIsoXLm5_NyUz-27" value="Конец" style="ellipse;whiteSpace=wrap;html=1;" vertex="1" parent="WIyWlLk6GJQsqaUBKTNV-1">
          <mxGeometry x="600" y="270" width="120" height="50" as="geometry" />
        </mxCell>
      </root>
    </mxGraphModel>
  </diagram>
</mxfile>
